<?xml version="1.0" encoding="UTF-8" standalone="no"?><!DOCTYPE svg PUBLIC "-//W3C//DTD SVG 1.1//EN" "http://www.w3.org/Graphics/SVG/1.1/DTD/svg11.dtd"><svg width="100%" height="100%" viewBox="0 0 601 92" version="1.1" xmlns="http://www.w3.org/2000/svg" xmlns:xlink="http://www.w3.org/1999/xlink" xml:space="preserve" xmlns:serif="http://www.serif.com/" style="fill-rule:evenodd;clip-rule:evenodd;stroke-linejoin:round;stroke-miterlimit:2;"><rect id="weddingly_logo" x="0.818" y="0" width="600" height="91.4" style="fill:none;"/><clipPath id="_clip1"><rect x="0.818" y="0" width="600" height="91.4"/></clipPath><g clip-path="url(#_clip1)"><g><path d="M63.174,66.92c-6.5,6.162 -13.994,11.768 -20.785,16.222c-13.128,-8.61 -28.881,-21.524 -35.007,-34.439c-8.752,-17.219 -8.752,-34.438 -0,-43.048c8.751,-8.609 26.255,-8.609 35.007,8.61c2.149,-4.229 4.826,-7.419 7.771,-9.698c3.533,-2.916 8.172,-4.587 13.014,-4.567c4.842,-0.02 9.482,1.651 13.015,4.567c2.945,2.28 5.622,5.47 7.771,9.698c8.752,-17.219 26.255,-17.219 35.007,-8.61c8.752,8.61 8.752,25.829 -0,43.048c-6.126,12.915 -21.879,25.829 -35.007,34.439c-6.791,-4.454 -14.285,-10.06 -20.786,-16.222Z" style="fill:#d94141;"/><g><path d="M174.66,70.924c-2.09,0 -3.981,-0.671 -5.672,-2.015c-1.692,-1.343 -2.737,-3.11 -3.135,-5.299l-9.105,-48.512c-0.199,-1.99 0.373,-3.632 1.716,-4.926c1.344,-1.293 3.011,-1.94 5.001,-1.94c1.692,0 3.134,0.498 4.329,1.493c1.194,0.995 1.94,2.338 2.239,4.03l5.373,32.689c0.199,1.195 0.647,1.792 1.344,1.792c0.597,-0 1.045,-0.548 1.343,-1.642l7.165,-26.421c0.497,-1.89 1.443,-3.308 2.836,-4.254c1.393,-0.945 2.886,-1.418 4.478,-1.418c1.592,0 3.085,0.473 4.478,1.418c1.393,0.946 2.339,2.364 2.836,4.254l7.165,26.421c0.298,1.094 0.746,1.642 1.343,1.642c0.796,-0 1.244,-0.597 1.344,-1.792l5.373,-32.689c0.299,-1.692 1.07,-3.035 2.314,-4.03c1.244,-0.995 2.662,-1.493 4.254,-1.493c1.99,0 3.657,0.647 5.001,1.94c1.343,1.294 1.915,2.936 1.716,4.926l-9.254,48.512c-0.398,2.189 -1.443,3.956 -3.135,5.299c-1.692,1.344 -3.582,2.015 -5.672,2.015c-1.891,0 -3.657,-0.622 -5.299,-1.866c-1.642,-1.243 -2.861,-2.91 -3.657,-5l-7.464,-26.271c-0.298,-1.095 -0.746,-1.642 -1.343,-1.642c-0.697,-0 -1.194,0.547 -1.493,1.642l-7.463,26.271c-0.597,2.09 -1.742,3.757 -3.433,5c-1.692,1.244 -3.533,1.866 -5.523,1.866Z" style="fill:#390000;fill-rule:nonzero;"/><path d="M256.906,70.924c-6.767,0 -12.464,-2.015 -17.091,-6.045c-4.627,-4.03 -6.941,-9.578 -6.941,-16.643c0,-7.364 2.264,-13.136 6.792,-17.315c4.528,-4.18 10.225,-6.27 17.091,-6.27c4.876,0 8.906,0.896 12.091,2.687c3.184,1.791 5.572,4.08 7.164,6.867c1.593,2.786 2.389,5.721 2.389,8.806c-0,5.175 -2.289,7.762 -6.867,7.762l-24.778,0c-0.796,0 -1.194,0.498 -1.194,1.493c-0,2.289 1.269,4.105 3.806,5.448c2.538,1.343 5.399,2.015 8.583,2.015c1.99,0 3.98,-0.273 5.971,-0.821c1.99,-0.547 3.731,-1.368 5.224,-2.463c0.995,-0.696 2.04,-1.045 3.135,-1.045c1.492,0 2.761,0.548 3.806,1.642c1.045,1.095 1.567,2.389 1.567,3.881c0,1.792 -0.945,3.483 -2.836,5.075c-1.791,1.493 -4.403,2.687 -7.836,3.583c-3.433,0.895 -6.792,1.343 -10.076,1.343Zm7.762,-28.808c0.199,-0 0.473,-0.05 0.821,-0.15c0.348,-0.099 0.522,-0.447 0.522,-1.044c0,-1.493 -0.92,-2.861 -2.761,-4.105c-1.841,-1.244 -4.204,-1.866 -7.09,-1.866c-3.085,-0 -5.598,0.672 -7.538,2.015c-1.941,1.343 -2.911,2.712 -2.911,4.105c0,0.696 0.398,1.045 1.194,1.045l17.763,-0Z" style="fill:#390000;fill-rule:nonzero;"/><path d="M307.956,70.924c-6.668,0 -12.016,-2.114 -16.047,-6.344c-4.03,-4.229 -6.045,-9.876 -6.045,-16.941c-0,-7.066 1.965,-12.663 5.896,-16.793c3.931,-4.13 9.18,-6.195 15.748,-6.195c4.279,0 8.11,1.543 11.493,4.628l0,-19.554c0,-1.692 0.597,-3.11 1.792,-4.254c1.194,-1.145 2.736,-1.717 4.627,-1.717c1.99,-0 3.607,0.572 4.851,1.717c1.244,1.144 1.866,2.512 1.866,4.104l-0,55.528c-0,1.692 -0.622,3.085 -1.866,4.179c-1.244,1.095 -2.861,1.642 -4.851,1.642c-3.185,0 -5.225,-1.393 -6.12,-4.179c-3.085,2.786 -6.866,4.179 -11.344,4.179Zm1.044,-12.09c2.986,-0 5.399,-1.07 7.24,-3.21c1.841,-2.139 2.761,-4.801 2.761,-7.985c0,-3.284 -0.92,-5.921 -2.761,-7.912c-1.841,-1.99 -4.254,-2.985 -7.24,-2.985c-3.084,0 -5.547,0.995 -7.388,2.985c-1.841,1.991 -2.762,4.628 -2.762,7.912c0,3.184 0.921,5.846 2.762,7.985c1.841,2.14 4.304,3.21 7.388,3.21Z" style="fill:#390000;fill-rule:nonzero;"/><path d="M362.438,70.924c-6.667,0 -12.016,-2.114 -16.046,-6.344c-4.03,-4.229 -6.045,-9.876 -6.045,-16.941c-0,-7.066 1.965,-12.663 5.896,-16.793c3.93,-4.13 9.18,-6.195 15.747,-6.195c4.279,0 8.11,1.543 11.494,4.628l-0,-19.554c-0,-1.692 0.597,-3.11 1.791,-4.254c1.194,-1.145 2.737,-1.717 4.627,-1.717c1.991,-0 3.608,0.572 4.852,1.717c1.243,1.144 1.865,2.512 1.865,4.104l0,55.528c0,1.692 -0.622,3.085 -1.865,4.179c-1.244,1.095 -2.861,1.642 -4.852,1.642c-3.184,0 -5.224,-1.393 -6.12,-4.179c-3.084,2.786 -6.866,4.179 -11.344,4.179Zm1.045,-12.09c2.985,-0 5.398,-1.07 7.239,-3.21c1.841,-2.139 2.762,-4.801 2.762,-7.985c-0,-3.284 -0.921,-5.921 -2.762,-7.912c-1.841,-1.99 -4.254,-2.985 -7.239,-2.985c-3.085,0 -5.548,0.995 -7.389,2.985c-1.841,1.991 -2.761,4.628 -2.761,7.912c-0,3.184 0.92,5.846 2.761,7.985c1.841,2.14 4.304,3.21 7.389,3.21Z" style="fill:#390000;fill-rule:nonzero;"/><path d="M404.681,70.924c-1.891,0 -3.483,-0.547 -4.777,-1.642c-1.293,-1.094 -1.94,-2.487 -1.94,-4.179l-0,-33.884c-0,-1.592 0.622,-2.96 1.866,-4.105c1.243,-1.144 2.86,-1.716 4.851,-1.716c1.99,-0 3.557,0.572 4.702,1.716c1.144,1.145 1.716,2.563 1.716,4.254l0,33.586c0,1.691 -0.622,3.109 -1.866,4.254c-1.244,1.144 -2.761,1.716 -4.552,1.716Zm-0,-52.99c-2.09,0 -3.881,-0.671 -5.374,-2.015c-1.493,-1.343 -2.239,-3.06 -2.239,-5.149c0,-1.891 0.746,-3.533 2.239,-4.926c1.493,-1.393 3.284,-2.09 5.374,-2.09c1.99,-0 3.707,0.697 5.149,2.09c1.443,1.393 2.165,3.035 2.165,4.926c-0,2.089 -0.722,3.806 -2.165,5.149c-1.442,1.344 -3.159,2.015 -5.149,2.015Z" style="fill:#390000;fill-rule:nonzero;"/><path d="M460.656,70.924c-1.891,0 -3.458,-0.547 -4.702,-1.642c-1.244,-1.094 -1.866,-2.487 -1.866,-4.179l0,-18.211c0,-3.682 -0.821,-6.319 -2.463,-7.911c-1.642,-1.592 -3.657,-2.388 -6.045,-2.388c-2.488,-0 -4.553,0.796 -6.195,2.388c-1.642,1.592 -2.662,3.433 -3.06,5.523l0,20.002c0,1.691 -0.622,3.109 -1.865,4.254c-1.244,1.144 -2.762,1.716 -4.553,1.716c-1.891,0 -3.483,-0.547 -4.777,-1.642c-1.293,-1.094 -1.94,-2.487 -1.94,-4.179l-0,-33.436c-0,-1.592 0.622,-2.96 1.866,-4.105c1.244,-1.144 2.861,-1.716 4.851,-1.716c1.592,-0 2.935,0.423 4.03,1.269c1.095,0.845 1.841,1.915 2.239,3.209c2.687,-3.483 6.767,-5.225 12.24,-5.225c5.573,0 10.1,1.642 13.583,4.926c3.483,3.284 5.225,8.508 5.225,15.673l-0,20.151c-0,1.593 -0.622,2.911 -1.866,3.956c-1.244,1.045 -2.811,1.567 -4.702,1.567Z" style="fill:#390000;fill-rule:nonzero;"/><path d="M497.226,91.075c-2.786,0 -5.473,-0.273 -8.06,-0.821c-2.587,-0.547 -4.926,-1.368 -7.016,-2.463c-2.388,-1.293 -3.582,-3.283 -3.582,-5.97c-0,-1.692 0.597,-3.16 1.791,-4.404c1.194,-1.244 2.587,-1.865 4.18,-1.865c1.293,-0 2.438,0.298 3.433,0.895c1.592,0.896 3.259,1.543 5,1.941c1.742,0.398 3.458,0.597 5.15,0.597c3.781,-0 6.593,-0.846 8.434,-2.538c1.841,-1.692 2.761,-3.931 2.761,-6.717l0,-3.433c-3.184,3.085 -7.115,4.627 -11.792,4.627c-6.667,0 -12.016,-2.114 -16.046,-6.344c-4.031,-4.229 -6.046,-9.876 -6.046,-16.941c0,-7.066 1.966,-12.663 5.896,-16.793c3.931,-4.13 9.18,-6.195 15.748,-6.195c4.777,0 8.906,1.841 12.389,5.523c0.299,-1.393 1.02,-2.537 2.165,-3.433c1.144,-0.895 2.562,-1.343 4.254,-1.343c1.99,-0 3.582,0.597 4.776,1.791c1.194,1.194 1.792,2.687 1.792,4.478l-0,38.362c-0,6.368 -2.215,11.468 -6.643,15.3c-4.428,3.831 -10.623,5.746 -18.584,5.746Zm1.344,-32.241c2.985,-0 5.398,-1.07 7.239,-3.21c1.841,-2.139 2.762,-4.801 2.762,-7.985c-0,-3.284 -0.921,-5.921 -2.762,-7.912c-1.841,-1.99 -4.254,-2.985 -7.239,-2.985c-3.085,0 -5.548,0.995 -7.389,2.985c-1.841,1.991 -2.761,4.628 -2.761,7.912c-0,3.184 0.92,5.846 2.761,7.985c1.841,2.14 4.304,3.21 7.389,3.21Z" style="fill:#390000;fill-rule:nonzero;"/><path d="M539.768,70.924c-1.891,0 -3.483,-0.547 -4.777,-1.642c-1.294,-1.094 -1.94,-2.487 -1.94,-4.179l-0,-55.528c-0,-1.592 0.621,-2.96 1.865,-4.104c1.244,-1.145 2.861,-1.717 4.852,-1.717c1.89,-0 3.433,0.572 4.627,1.717c1.194,1.144 1.791,2.562 1.791,4.254l0,55.229c0,1.691 -0.622,3.109 -1.866,4.254c-1.244,1.144 -2.761,1.716 -4.552,1.716Z" style="fill:#390000;fill-rule:nonzero;"/><path d="M553.799,30.622c-0,-1.99 0.696,-3.483 2.089,-4.478c1.394,-0.995 2.986,-1.493 4.777,-1.493c1.393,0 2.612,0.374 3.657,1.12c1.045,0.746 1.766,1.766 2.164,3.06l9.255,22.539c0.498,1.294 1.194,1.941 2.09,1.941c0.895,-0 1.542,-0.647 1.94,-1.941l8.061,-22.539c0.497,-1.393 1.318,-2.438 2.463,-3.135c1.144,-0.696 2.363,-1.045 3.657,-1.045c1.691,0 3.259,0.548 4.701,1.642c1.443,1.095 2.165,2.538 2.165,4.329c-0,0.995 -0.199,1.941 -0.597,2.836l-23.286,53.736c-0.696,1.493 -1.567,2.563 -2.612,3.21c-1.045,0.646 -2.115,0.97 -3.209,0.97c-1.792,-0 -3.409,-0.622 -4.852,-1.866c-1.442,-1.244 -2.164,-2.712 -2.164,-4.403c0,-0.896 0.199,-1.692 0.597,-2.389l8.061,-14.329c-1.692,-0.498 -3.035,-1.742 -4.031,-3.732l-14.479,-31.346c-0.298,-0.896 -0.447,-1.791 -0.447,-2.687Z" style="fill:#390000;fill-rule:nonzero;"/></g></g></g></svg>