<svg width="491" height="200" viewBox="0 0 491 200" fill="none" xmlns="http://www.w3.org/2000/svg">
<path d="M94.9661 1.68763C93.7403 0.768297 88.4501 9.25193 86.7889 18.2678C85.4663 25.445 85.0954 44.638 85.8857 54.1378C86.7889 65.1052 105.417 99.7817 105.417 99.7817L111.998 135.2L132.659 137.926C132.659 137.926 138.787 63.2182 139.465 59.815C140.142 56.4119 143.4 41.2027 146.126 31.3642C148.384 23.2354 153.093 9.41322 151.948 8.73582C150.819 8.05842 146.949 13.2841 143.997 15.5421C141.045 17.8001 132.239 24.7031 128.255 29.8481C121.449 38.6221 115.385 52.783 115.385 52.783C115.385 52.783 99.724 21.8322 98.1273 16.913C95.8693 9.86482 95.8693 2.36503 94.9661 1.68763Z" fill="#94A61A"/>
<path d="M137.949 30.5903C136.965 30.8645 128.707 46.3318 127.046 52.9929C125.385 59.654 121.594 69.6376 120.998 86.1372C120.482 100.411 120.094 108.088 120.094 108.088L125.385 112.927C125.385 112.927 125.078 87.3468 126.449 77.5084C127.804 67.6699 131.481 52.7994 133.11 47.3802C135.078 40.8965 139.013 30.3 137.949 30.5903Z" fill="#B5D024"/>
<path d="M64.08 54.364L57.7254 59.9606C57.7254 59.9606 72.1121 74.186 75.1281 78.573C78.1603 82.96 82.9989 91.4436 82.9989 91.4436C82.9989 91.4436 69.9831 79.1859 65.5961 75.0892C61.2092 71.0087 54.8545 66.9121 54.8545 66.9121L52.1288 74.4764L66.8058 86.8954L84.7408 137.684C84.7408 137.684 68.1606 130.346 65.4348 128.83C62.7091 127.314 49.8385 120.959 49.8385 120.959L48.9353 127.765C48.9353 127.765 55.7416 133.523 60.435 135.636C65.1284 137.749 90.1761 150.845 90.1761 150.845L113.708 150.926L138.223 174.99C138.223 174.99 143.223 181.796 145.191 184.522C147.158 187.247 149.884 190.731 150.642 190.876C151.4 191.022 155.642 188.005 157.61 186.489C159.577 184.973 161.852 183.167 161.852 182.248C161.852 181.328 156.094 175.732 156.094 175.732L130.223 139.587L125.836 112.04C125.836 112.04 122.353 99.7821 120.385 88.734C119.159 81.8471 117.514 66.3314 117.514 66.3314L110.708 67.2346C110.708 67.2346 112.417 80.2181 113.885 89.1856C115.853 101.137 118.579 112.201 118.579 112.201C118.579 112.201 109.643 95.5564 106.16 89.9437C102.676 84.3471 91.1761 66.3314 91.1761 66.3314L85.1278 69.5088C85.1278 69.5088 95.2727 85.2503 97.8372 89.4921C100.418 93.7339 109.95 110.379 109.95 110.379L97.0791 99.0241C97.0791 99.0241 85.7246 81.1697 82.4021 76.1699C79.0635 71.17 64.08 54.364 64.08 54.364Z" fill="#737F39"/>
<path d="M0.0495199 145.329C-0.676266 146.635 6.71062 145.781 13.3717 146.232C20.0328 146.684 38.8065 149.409 50.4513 151.377C62.0962 153.345 80.5957 156.458 90.1922 157.893C99.3532 159.248 104.869 155.458 108.014 154.716C112.821 153.587 114.03 154.716 114.03 154.716L124.175 165.925C124.175 165.925 127.433 174.667 129.627 180.457C132.207 187.263 135.384 199.682 136.884 199.989C138.384 200.295 145.513 194.231 145.965 193.182C146.416 192.118 139.304 173.957 138.546 171.393C137.788 168.828 135.368 162.006 135.368 162.006C135.368 162.006 143.675 170.635 146.868 173.957C150.658 177.893 154.126 180.925 155.642 181.215C157.158 181.505 162.9 172.731 162.9 171.377C162.9 170.022 155.642 164.119 153.207 161.683C150.787 159.264 144.578 150.942 144.578 150.942C144.578 150.942 141.094 140.2 140.788 137.765C140.481 135.345 140.965 127.555 142.626 114.088C143.433 107.572 151.69 74.6534 156.368 61.4764C161.061 48.2993 165.755 34.2352 164.69 33.6223C163.626 33.0094 157.126 41.3479 151.674 46.3316C146.223 51.3154 141.384 55.8636 139.417 59.799C137.449 63.7344 129.901 74.7018 127.756 91.5885C126.094 104.766 125.465 106.265 125.643 110.362C126.094 120.813 129.03 129.023 126.707 130.039C124.288 131.103 117.933 120.797 115.208 116.41C112.482 112.023 100.531 96.2819 89.1761 89.4595C77.8216 82.6371 60.7253 77.5082 57.8382 77.0405C54.9673 76.5889 38.9194 66.7504 38.9194 66.7504L22.4199 72.6535C22.4199 72.6535 16.5168 71.8954 13.9362 71.589C11.3557 71.2826 6.82352 70.0729 6.82352 70.9761C6.82352 71.8793 15.4039 80.2178 17.2103 82.0242C19.0329 83.8467 28.4681 93.8303 31.4841 96.1045C34.5002 98.3786 57.8866 121.394 58.935 122.168C64.3864 126.249 74.1281 135.942 84.2891 140.297C92.7728 143.926 101.547 145.103 101.547 146.764C101.547 148.426 97.4662 147.216 92.4663 146.2C88.5632 145.41 84.5149 144.039 70.4347 140.635C58.2253 137.684 50.9029 137.152 49.3869 137.152C47.8708 137.152 24.5972 136.894 20.5006 137.2C16.4039 137.507 3.92038 138.394 0.0495199 145.329Z" fill="#96A51D"/>
<path d="M28.3551 82.2178C28.2583 83.0242 34.871 86.6048 41.2257 90.2337C47.5803 93.8626 64.0799 102.185 72.1119 108.394C80.1278 114.604 89.2243 124.588 93.7565 128.829C98.1757 132.958 109.643 141.248 113.578 143.055C117.514 144.877 124.481 148.958 124.481 148.958L125.546 147.893C125.546 147.893 114.046 138.958 111.159 136.684C108.272 134.41 100.869 127.152 96.4822 122.91C92.0952 118.668 82.4987 109.814 75.1441 104.298C65.4508 97.04 45.3223 87.4918 40.4837 85.5241C35.6452 83.5565 28.5002 81.0081 28.3551 82.2178Z" fill="#B5CF23"/>
<path d="M141.126 137.168C140.417 136.604 129.465 144.136 125.836 146.41C122.207 148.684 112.966 153.668 112.966 154.587C112.966 155.506 122.353 167.006 123.111 167.006C123.869 167.006 132.949 161.716 136.578 159.748C140.207 157.78 147.175 154.151 147.32 153.232C147.481 152.297 141.884 137.765 141.126 137.168Z" fill="#E3DEA1"/>
<path d="M38.2743 1.68774L19.3877 18.2195C19.3877 18.2195 20.5167 24.5258 21.8876 28.3644C24.4682 35.6223 30.3229 42.7027 30.3229 42.7027C30.3229 42.7027 53.4835 65.8634 60.7414 60.7184C67.9993 55.5733 58.9672 17.9937 58.9672 17.9937C58.9672 17.9937 54.7254 11.4455 48.403 6.91341C42.8387 2.89739 38.2743 1.68774 38.2743 1.68774Z" fill="#A099F7"/>
<path d="M23.7748 1.57493C17.5008 5.49418 19.3878 18.4454 19.3878 18.4454C19.3878 18.4454 23.7586 15.51 29.5649 17.8003C35.3228 20.0744 42.9194 28.8806 44.1291 27.8323C45.3387 26.7678 37.726 17.5745 37.6131 10.0908C37.5486 5.38128 39.6614 2.02654 39.6614 2.02654C39.6614 2.02654 29.8391 -2.21528 23.7748 1.57493Z" fill="#7E43A4"/>
<path d="M98.9013 13.1069C98.9013 13.1069 95.482 16.8326 93.6756 24.155C91.0951 34.6063 92.3853 48.9124 95.1111 57.0735C97.8368 65.2507 105.53 74.4439 115.691 72.9601C126.142 71.444 130.013 59.8314 131.352 51.7672C132.836 42.8803 131.884 26.1066 124.772 15.8165C119.82 8.65545 119.594 9.83284 119.594 9.83284L98.9013 13.1069Z" fill="#FE6656"/>
<path d="M109.111 5.39711C101.176 6.17129 96.918 15.913 96.918 15.913C96.918 15.913 102.966 13.3324 106.611 19.0096C109.531 23.574 110.514 35.2027 111.869 35.0576C113.224 34.9124 113.724 22.4934 114.788 19.0903C117.014 11.9453 123.272 13.8646 123.272 13.8646C123.272 13.8646 118.353 4.47778 109.111 5.39711Z" fill="#CD1734"/>
<path d="M64.4189 15.9298L55.0643 22.0748C55.0643 22.0748 50.4515 34.01 57.8707 49.816C65.2898 65.622 76.8056 77.5088 91.031 69.88C103.095 63.4285 97.805 41.8969 92.5633 30.8165C88.9343 23.1393 82.999 16.2847 76.5153 12.7203C70.08 9.1881 64.4189 15.9298 64.4189 15.9298Z" fill="#FEB804"/>
<path d="M62.4997 11.4943C56.4515 14.4136 55.0806 22.0746 55.0806 22.0746C55.0806 22.0746 59.1611 22.994 63.1449 25.1713C69.4028 28.6067 73.4833 38.7516 74.6607 38.0742C75.8381 37.3968 71.9672 26.9293 73.8865 19.4618C74.9349 15.3651 76.5316 12.6394 76.5316 12.6394C76.5316 12.6394 69.564 8.07502 62.4997 11.4943Z" fill="#FF7537"/>
<path d="M12.759 42.3968L5.33984 49.3643C5.33984 49.3643 6.40433 54.8158 11.8558 61.9607C17.7427 69.6702 22.4523 72.6701 22.4523 72.6701C22.4523 72.6701 33.3552 74.1862 40.3066 75.0894C47.2742 75.9926 57.8706 77.0571 57.8706 77.0571C57.8706 77.0571 61.6609 71.9121 61.3544 65.7026C61.048 59.4931 53.6288 45.7193 40.6131 37.9937C29.565 31.4455 24.42 30.7358 17.904 30.881C11.3881 31.0261 12.759 42.3968 12.759 42.3968Z" fill="#FD8695"/>
<path d="M6.56537 35.2195C2.51709 40.6871 5.35572 49.3804 5.35572 49.3804C5.35572 49.3804 10.0975 47.3482 14.5168 48.2514C19.3553 49.2352 29.6615 55.4447 30.4034 54.4609C31.3227 53.2674 23.3714 45.9772 21.0972 39.0903C19.5973 34.5421 19.7424 30.8325 19.7424 30.8325C19.7424 30.8325 9.92011 30.6712 6.56537 35.2195Z" fill="#E658A4"/>
<path d="M5.69422 101.556L3.75879 113.249C3.75879 113.249 6.48452 120.507 17.1616 129.297C24.0969 135.007 32.758 138.991 43.8061 138.233C54.8541 137.474 57.5799 131.571 58.7895 128.701C59.9992 125.83 63.5475 115.846 47.8866 103.121C33.7257 91.6209 20.339 92.4435 15.7907 92.6693C10.4522 92.9273 5.69422 101.556 5.69422 101.556Z" fill="#E84B8B"/>
<path d="M2.32357 98.1046C-0.386028 104.298 4.06546 113.991 4.06546 113.991C4.06546 113.991 7.40408 110.475 13.7587 110.056C19.5812 109.685 29.5002 115.346 30.3228 113.475C30.9357 112.04 20.2747 105.524 17.4683 100.685C14.8555 96.153 15.8071 92.6693 15.8071 92.6693C15.8071 92.6693 4.74286 92.5886 2.32357 98.1046Z" fill="#AF0C1B"/>
<path d="M261.368 145L255.992 127.976H226.168L220.792 145H205.56L234.616 57.9599H248.184L277.368 145H261.368ZM234.488 101.352L230.52 113.896H251.512L247.544 101.352L241.144 79.3359L234.488 101.352ZM335.836 132.712C339.249 132.712 342.065 131.901 344.284 130.28C346.503 128.659 347.868 126.483 348.38 123.752C348.892 120.936 348.252 117.821 346.46 114.408L358.236 107.24L377.692 145H361.692L356.06 132.328C354.865 136.424 352.391 139.795 348.636 142.44C344.967 145 340.231 146.28 334.428 146.28C326.833 146.28 320.86 144.147 316.508 139.88C312.241 135.613 310.108 130.109 310.108 123.368C310.108 118.589 311.345 114.109 313.82 109.928C316.38 105.747 320.689 101.693 326.748 97.7679C322.567 94.5253 319.537 91.2826 317.66 88.0399C315.783 84.7119 314.844 81.1706 314.844 77.4159C314.844 73.5759 315.74 70.0773 317.532 66.9199C319.324 63.7626 321.927 61.2879 325.34 59.4959C328.839 57.6186 333.105 56.6799 338.14 56.6799C345.393 56.6799 351.153 58.5573 355.42 62.3119C359.687 66.0666 361.82 71.2719 361.82 77.9279C361.82 81.9386 361.009 85.3946 359.388 88.2959C357.852 91.1973 355.719 93.8426 352.988 96.2319C350.257 98.5359 347.057 100.84 343.388 103.144L334.428 108.904C330.588 111.379 328.071 113.768 326.876 116.072C325.681 118.376 325.084 120.595 325.084 122.728C325.084 126.141 326.065 128.659 328.028 130.28C330.076 131.901 332.679 132.712 335.836 132.712ZM329.052 78.1839C329.052 80.0613 329.564 82.1519 330.588 84.4559C331.697 86.7599 333.575 89.1066 336.22 91.4959C339.207 89.5333 341.468 87.9119 343.004 86.6319C344.54 85.2666 345.607 83.9866 346.204 82.7919C346.801 81.5973 347.1 80.2746 347.1 78.8239C347.1 75.7519 346.247 73.5333 344.54 72.1679C342.833 70.7173 340.743 69.9919 338.268 69.9919C335.708 69.9919 333.532 70.6746 331.74 72.0399C329.948 73.4053 329.052 75.4533 329.052 78.1839ZM414.907 145V57.9599H428.987C435.728 66.7493 442.128 76.0506 448.187 85.8639C454.246 95.5919 459.75 105.619 464.699 115.944L463.547 89.9599V57.9599H478.267V145H464.187C458.726 134.248 453.051 123.453 447.163 112.616C441.36 101.693 435.174 91.4106 428.603 81.7679L429.627 111.72V145H414.907Z" fill="black"/>
</svg>
